<mxfile host="65bd71144e">
    <diagram id="FEgWUpbtPezv7PEWLLjS" name="Page-1">
        <mxGraphModel dx="961" dy="800" grid="0" gridSize="10" guides="1" tooltips="1" connect="1" arrows="1" fold="1" page="1" pageScale="1" pageWidth="1100" pageHeight="850" background="#B2ABB5" math="0" shadow="1">
            <root>
                <mxCell id="0"/>
                <mxCell id="1" parent="0"/>
                <mxCell id="2" value="User" style="shape=umlActor;verticalLabelPosition=bottom;verticalAlign=top;html=1;outlineConnect=0;rounded=0;" parent="1" vertex="1">
                    <mxGeometry x="50" y="340" width="30" height="60" as="geometry"/>
                </mxCell>
                <mxCell id="18" style="edgeStyle=none;html=1;exitX=0;exitY=0.5;exitDx=0;exitDy=0;entryX=0.75;entryY=1;entryDx=0;entryDy=0;rounded=0;" parent="1" source="3" target="12" edge="1">
                    <mxGeometry relative="1" as="geometry"/>
                </mxCell>
                <mxCell id="3" value="API Consumer" style="rounded=0;whiteSpace=wrap;html=1;" parent="1" vertex="1">
                    <mxGeometry x="455" y="470" width="120" height="60" as="geometry"/>
                </mxCell>
                <mxCell id="17" style="edgeStyle=none;html=1;exitX=0.5;exitY=1;exitDx=0;exitDy=0;entryX=0.5;entryY=0;entryDx=0;entryDy=0;rounded=0;" parent="1" source="4" target="3" edge="1">
                    <mxGeometry relative="1" as="geometry"/>
                </mxCell>
                <mxCell id="4" value="Kafika" style="rounded=0;whiteSpace=wrap;html=1;" parent="1" vertex="1">
                    <mxGeometry x="490" y="310" width="50" height="140" as="geometry"/>
                </mxCell>
                <mxCell id="5" value="API Binance" style="rounded=0;whiteSpace=wrap;html=1;" parent="1" vertex="1">
                    <mxGeometry x="680" y="230" width="120" height="60" as="geometry"/>
                </mxCell>
                <mxCell id="16" style="edgeStyle=none;html=1;exitX=0.5;exitY=1;exitDx=0;exitDy=0;entryX=0.5;entryY=0;entryDx=0;entryDy=0;rounded=0;" parent="1" source="6" target="4" edge="1">
                    <mxGeometry relative="1" as="geometry"/>
                </mxCell>
                <mxCell id="19" style="edgeStyle=none;html=1;exitX=1;exitY=0.5;exitDx=0;exitDy=0;rounded=0;" parent="1" source="6" edge="1">
                    <mxGeometry relative="1" as="geometry">
                        <mxPoint x="670" y="260" as="targetPoint"/>
                    </mxGeometry>
                </mxCell>
                <mxCell id="6" value="API Producer" style="rounded=0;whiteSpace=wrap;html=1;" parent="1" vertex="1">
                    <mxGeometry x="455" y="230" width="120" height="60" as="geometry"/>
                </mxCell>
                <mxCell id="13" style="edgeStyle=none;html=1;exitX=0;exitY=0.5;exitDx=0;exitDy=0;rounded=0;" parent="1" source="11" edge="1">
                    <mxGeometry relative="1" as="geometry">
                        <mxPoint x="100" y="380" as="targetPoint"/>
                    </mxGeometry>
                </mxCell>
                <mxCell id="14" style="edgeStyle=none;html=1;entryX=0;entryY=0.5;entryDx=0;entryDy=0;rounded=0;" parent="1" source="11" target="12" edge="1">
                    <mxGeometry relative="1" as="geometry"/>
                </mxCell>
                <mxCell id="11" value="Web page" style="whiteSpace=wrap;html=1;aspect=fixed;rounded=0;" parent="1" vertex="1">
                    <mxGeometry x="142" y="340" width="80" height="80" as="geometry"/>
                </mxCell>
                <mxCell id="15" style="edgeStyle=none;html=1;rounded=0;" parent="1" source="12" edge="1">
                    <mxGeometry relative="1" as="geometry">
                        <mxPoint x="450" y="260" as="targetPoint"/>
                    </mxGeometry>
                </mxCell>
                <mxCell id="12" value="coinevent" style="rounded=0;whiteSpace=wrap;html=1;" parent="1" vertex="1">
                    <mxGeometry x="270" y="350" width="120" height="60" as="geometry"/>
                </mxCell>
                <mxCell id="20" value="" style="endArrow=none;dashed=1;html=1;fillColor=#1ba1e2;strokeColor=#006EAF;strokeWidth=2;rounded=0;" parent="1" edge="1">
                    <mxGeometry width="50" height="50" relative="1" as="geometry">
                        <mxPoint x="630" y="400" as="sourcePoint"/>
                        <mxPoint x="630" y="120" as="targetPoint"/>
                    </mxGeometry>
                </mxCell>
            </root>
        </mxGraphModel>
    </diagram>
</mxfile>